<?xml version="1.0" encoding="UTF-8"?><!DOCTYPE svg PUBLIC "-//W3C//DTD SVG 1.1//EN" "http://www.w3.org/Graphics/SVG/1.1/DTD/svg11.dtd"><svg xmlns="http://www.w3.org/2000/svg"><symbol id="icon-arrow" viewBox="0 0 188.7 306"><title>icon-arrow</title><path d="M35.7 0L0 35.7 117.3 153 0 270.3 35.7 306l153-153L35.7 0z"/></symbol><symbol id="icon-calendar" viewBox="0 0 352 384"><title>icon-calendar</title><path d="M160 208h32v32h-32zm0 64h32v32h-32zm64 0h32v32h-32zM96 208h32v32H96zM320 64h-32V16a16 16 0 0 0-32 0v96a32 32 0 0 1-32-32V64H112V16a16 16 0 0 0-32 0v96a32 32 0 0 1-32-32V64H32A32.09 32.09 0 0 0 0 96v256a32.09 32.09 0 0 0 32 32h288a32 32 0 0 0 32-32V96a32 32 0 0 0-32-32zm0 288H32V160h288z"/></symbol><symbol id="icon-clock" viewBox="0 0 512 512"><title>icon-clock</title><path d="M437 75A256 256 0 0 0 75 437 256 256 0 0 0 437 75zM256 470.64c-118.35 0-214.64-96.29-214.64-214.64S137.65 41.36 256 41.36 470.64 137.65 470.64 256 374.35 470.64 256 470.64zM341.22 312A20.68 20.68 0 1 1 312 341.22l-70.59-70.6a20.65 20.65 0 0 1-6.09-14.62V114.81a20.68 20.68 0 0 1 41.36 0v132.62z"/></symbol><symbol id="icon-close" viewBox="0 0 15.56 15.56"><title>icon-close</title><path d="M7.78 6.36L1.41 0 0 1.41l6.36 6.37L0 14.14l1.41 1.42 6.37-6.37 6.36 6.37 1.42-1.42-6.37-6.36 6.37-6.37L14.14 0z"/></symbol><symbol id="icon-fb" viewBox="0 0 25.55 49.24"><title>icon-facebook</title><path d="M16.55 49.24V26.81h7.57l1.13-8.78h-8.7v-5.59c0-2.54.71-4.26 4.35-4.26h4.65V.34A63.43 63.43 0 0 0 18.8 0C12.11 0 7.55 4.08 7.55 11.57v6.46H0v8.78h7.55v22.43z"/></symbol><symbol id="icon-load" viewBox="0 0 342.5 341.4"><title>icon-load</title><path d="M254.37 21.71a4.94 4.94 0 0 0-3.8-.43 5 5 0 0 0-3 2.39l-21.75 39.39a5 5 0 0 0 2 6.79A115.46 115.46 0 1 1 78 104.07l34.48 34.48a5 5 0 0 0 8.48-2.81l19-130a5 5 0 0 0-1.41-4.26 5.05 5.05 0 0 0-4.26-1.43L4.28 19a5 5 0 0 0-2.82 8.48l37.3 37.29A170.77 170.77 0 0 0 1.64 171c0 94 76.45 170.43 170.43 170.43S342.5 265 342.5 171a170.57 170.57 0 0 0-88.13-149.29z"/></symbol><symbol id="icon-location" viewBox="0 0 24.2 31.06"><title>icon-location</title><path class="a" d="M12.1 0A12.12 12.12 0 0 0 0 12.1c0 6.47 11 18.18 11.45 18.68a.88.88 0 0 0 .65.28.86.86 0 0 0 .64-.28c.47-.5 11.46-12.21 11.46-18.68A12.12 12.12 0 0 0 12.1 0zm0 28.86C8.71 25.13 1.78 16.58 1.78 12.1a10.32 10.32 0 1 1 20.64 0c0 4.48-6.93 13.03-10.32 16.76zm0-23.21a5.12 5.12 0 1 0 5.12 5.12 5.13 5.13 0 0 0-5.12-5.12zm0 8.46a3.34 3.34 0 1 1 3.34-3.34 3.34 3.34 0 0 1-3.34 3.34z"/></symbol><symbol id="icon-mail" viewBox="0 0 512 311.11"><title>icon-mail</title><path d="M511.65 26.19A26.26 26.26 0 0 0 485.42 0L26.19.63A26.24 26.24 0 0 0 0 26.89l.36 258a26.2 26.2 0 0 0 26.22 26.19l459.19-.63A26.26 26.26 0 0 0 512 284.22zm-55 .08L256 165.71 55 26.82zM340.85 192l119 92.26-408 .56L171.54 192a13.11 13.11 0 1 0-16.07-20.73l-128.91 100-.32-232.48 222.35 153.66a13.08 13.08 0 0 0 14.93 0L485.44 38.17l.33 233.06-128.85-99.93a13.11 13.11 0 0 0-16.07 20.7z"/></symbol><symbol id="icon-menu" viewBox="0 0 32 24"><title>icon-menu</title><path d="M0 0v4h32V0zm0 10v4h32v-4zm0 10v4h32v-4z"/></symbol><symbol id="icon-ok" viewBox="0 0 24 24"><title>Odnoklassniki icon</title><path d="M14.505 17.44a11.599 11.599 0 0 0 3.6-1.49 1.816 1.816 0 0 0-1.935-3.073 7.866 7.866 0 0 1-8.34 0 1.814 1.814 0 0 0-2.5.565c0 .002 0 .004-.002.005a1.812 1.812 0 0 0 .567 2.5l.002.002c1.105.695 2.322 1.2 3.596 1.488l-3.465 3.465A1.796 1.796 0 0 0 6 23.439l.03.03c.344.354.81.53 1.274.53.465 0 .93-.176 1.275-.53L12 20.065l3.404 3.406a1.815 1.815 0 0 0 2.566-2.565l-3.465-3.466zM12 12.388a6.202 6.202 0 0 0 6.195-6.193C18.195 2.78 15.415 0 12 0S5.805 2.78 5.805 6.197A6.2 6.2 0 0 0 12 12.389zm0-8.757a2.566 2.566 0 0 1 0 5.13 2.569 2.569 0 0 1-2.565-2.564A2.57 2.57 0 0 1 12 3.63z"/></symbol><symbol id="icon-phone" viewBox="0 0 480.78 482.6"><title>icon-phone</title><path d="M97.43 320.8c47.6 56.9 104.9 101.7 170.3 133.4 24.9 11.8 58.2 25.8 95.3 28.2 2.3.1 4.5.2 6.8.2 24.9 0 44.9-8.6 61.2-26.3a2.18 2.18 0 0 0 .4-.5c5.8-7 12.4-13.3 19.3-20 4.7-4.5 9.5-9.2 14.1-14 21.3-22.2 21.3-50.4-.2-71.9l-60.1-60.1c-10.2-10.6-22.4-16.2-35.2-16.2s-25.1 5.6-35.6 16.1l-35.8 35.8c-3.3-1.9-6.7-3.6-9.9-5.2a123.66 123.66 0 0 1-11-6c-32.6-20.7-62.2-47.7-90.5-82.4-14.3-18.1-23.9-33.3-30.6-48.8 9.4-8.5 18.2-17.4 26.7-26.1 3-3.1 6.1-6.2 9.2-9.3 10.8-10.8 16.6-23.3 16.6-36s-5.7-25.2-16.6-36L162 45.9c-3.5-3.5-6.8-6.9-10.2-10.4-6.6-6.8-13.5-13.8-20.3-20.1C121.23 5.3 109.13 0 96.33 0s-24.9 5.3-35.6 15.5l-37.4 37.4a76.84 76.84 0 0 0-22.9 49.2c-1.9 23.9 2.5 49.3 13.9 80 17.5 47.5 43.9 91.6 83.1 138.7zm-72.6-216.6a52.89 52.89 0 0 1 15.9-34L77.93 33c5.8-5.6 12.2-8.5 18.4-8.5s12.3 2.9 18 8.7c6.7 6.2 13 12.7 19.8 19.6 3.4 3.5 6.9 7 10.4 10.6l29.8 29.8c6.2 6.2 9.4 12.5 9.4 18.7s-3.2 12.5-9.4 18.7c-3.1 3.1-6.2 6.3-9.3 9.4-9.3 9.4-18 18.3-27.6 26.8l-.5.5c-8.3 8.3-7 16.2-5 22.2.1.3.2.5.3.8 7.7 18.5 18.4 36.1 35.1 57.1 30 37 61.6 65.7 96.4 87.8a143.14 143.14 0 0 0 13.2 7.2 123.66 123.66 0 0 1 11 6c.4.2.7.4 1.1.6a20.9 20.9 0 0 0 9.7 2.5c8 0 13.2-5.1 14.9-6.8L351 307.3c5.8-5.8 12.1-8.9 18.3-8.9 7.6 0 13.8 4.7 17.7 8.9l60.3 60.2c12 12 11.9 25-.3 37.7-4.2 4.5-8.6 8.8-13.3 13.3-7 6.8-14.3 13.8-20.9 21.7-11.5 12.4-25.2 18.2-42.9 18.2-1.7 0-3.5-.1-5.2-.2-32.8-2.1-63.3-14.9-86.2-25.8-62.2-30.1-116.8-72.8-162.1-127-37.3-44.9-62.4-86.7-79-131.5-10.27-27.5-14.17-49.6-12.57-69.7z"/></symbol><symbol id="icon-vk" viewBox="0 0 24 24"><title>VK icon</title><path d="M11.701 18.771h1.437s.433-.047.654-.284c.21-.221.21-.63.21-.63s-.031-1.927.869-2.21c.887-.281 2.012 1.86 3.211 2.683.916.629 1.605.494 1.605.494l3.211-.044s1.682-.105.887-1.426c-.061-.105-.451-.975-2.371-2.76-2.012-1.861-1.742-1.561.676-4.787 1.469-1.965 2.07-3.166 1.875-3.676-.166-.48-1.26-.361-1.26-.361l-3.602.031s-.27-.031-.465.09c-.195.119-.314.391-.314.391s-.572 1.529-1.336 2.82c-1.623 2.729-2.268 2.879-2.523 2.699-.604-.391-.449-1.58-.449-2.432 0-2.641.404-3.75-.781-4.035-.39-.091-.681-.15-1.685-.166-1.29-.014-2.378.01-2.995.311-.405.203-.72.652-.539.675.24.03.779.146 1.064.537.375.506.359 1.636.359 1.636s.211 3.116-.494 3.503c-.495.262-1.155-.28-2.595-2.756-.735-1.26-1.291-2.67-1.291-2.67s-.105-.256-.299-.406c-.227-.165-.557-.225-.557-.225l-3.435.03s-.51.016-.689.24c-.166.195-.016.615-.016.615s2.686 6.287 5.732 9.453c2.79 2.902 5.956 2.715 5.956 2.715l-.05-.055z"/></symbol></svg>