<svg xmlns="http://www.w3.org/2000/svg" viewBox="0 0 63.63 13.8"><path d="M15.53 3.7c.1.4-.1.8-.4 1.5-.8 2.1-1.4 3.5-2.1 5.7a4 4 0 0 1-.8 1.6 2.41 2.41 0 0 1-.8.6 5.52 5.52 0 0 1-5.9-1 4.35 4.35 0 0 0-.6-.7 1 1 0 0 1-.4-.3 31.17 31.17 0 0 0-4-3.2c-1.2-.7-.2-1.5 1.4-1.1 1.4.4 3.4 2.3 3.9 1.2.2-.3.9-4.4 1-4.9a12 12 0 0 1 .3-2 1.93 1.93 0 0 1 .5-.9c.5-.3.9-.3 1.1.2.1.1.1.2.1.4 0 1.4-.3 4-.4 5a23 23 0 0 0-.3 2.6c0 .9.8 1.4 1.5.9.3 1 1.2 1.2 1.8.2.5-.7 1.2-2.8 2.1-4.4.3-.5.5-1 .8-1.4.1-.1.1-.2.2-.3.4-.6.9-.4 1 .3zm27.9 4.9c-.3.2-.6.3-.9.5.1.1.3.2.4.3a3.67 3.67 0 0 1 .6 1.4l.5 2.6H42l-.5-2.5c-.2-.8-.2-1.6-1.4-1.5l-.9 4h-2.1l1.8-8.9h-1.1l.3-1.6h4c1.5 0 2.3.2 2.8 1.2a4 4 0 0 1-.3 3.2 3.84 3.84 0 0 1-1.17 1.3zM41 4.7l-.6 3.1c1 0 1.9.1 2.4-1.3.63-2.1-.87-1.8-1.8-1.8zm20.4 5.2l2.2-3.2h-2c-.5.7-.9 1.5-1.4 2.2h-.6c0-.6 1-4.7 1.2-5.9h-3.1l-.3 1.6h1.1c-.1 1.5-1.7 8.1-1.7 8.8h1.9l.7-2.9c.8-.1.9.4 1 1.2l.3 1.7h1.9l-.3-1.3c-.3-1.2-.17-1.5-.87-2.2zm-41.8 1.9h-1.4L20 3l-3.3.1-.4 1.6h1.2l-1.8 8.7H21l.6-2.7h-1.8zm30.6-4.3a3.73 3.73 0 0 1 .2 3.1 4.06 4.06 0 0 1-.8 1.9 3.05 3.05 0 0 1-3.1 1.2 1.27 1.27 0 0 1-.6-.1 2.72 2.72 0 0 1-1.6-2.3 6.45 6.45 0 0 1 .3-2 4 4 0 0 1 2.2-2.5 3 3 0 0 1 3.43.7zm-2.1.9c-.8-.3-1.3.8-1.5 1.5a2.66 2.66 0 0 0-.1 1.5c.3 1 1.1.9 1.6.1.73-1 .73-2.9.03-3.1zM27.53 9.8a3.3 3.3 0 0 1-3.4 1.6c.4 1.3 1.6.7 2.5.4l.3 1.4c-1 .3-3.2 1.2-4.3-.1a3.37 3.37 0 0 1-.6-2 4.53 4.53 0 0 1 1-3c1.9-2.5 6.3-1.4 4.5 1.7zm-2.2-1.5a2.1 2.1 0 0 0-1.1 1.7c.6 0 1.1 0 1.4-.4a.86.86 0 0 0 .3-.6c.07-.4-.1-.8-.6-.7zm11.3.9l.9-2.7h-1.7l-.1.4a3.63 3.63 0 0 0-2.5.4 2.91 2.91 0 0 0-.8 2.3c.3 1.1 1.9 1.3 2.1 1.8.4.9-1.4 1.1-2.4.3l-.7 1.4c.5.7 2.1.8 3.1.6a2.56 2.56 0 0 0 2-2.4 1.57 1.57 0 0 0-.6-1.3 4.15 4.15 0 0 0-1.3-.7c-.2-.1-.3-.2-.3-.4 0-.5.4-.5 1-.4l-.1.7zm20-.3l.9-2.7h-1.6l-.1.5c-1.9-.2-2.9.3-3.7 1.4a4.87 4.87 0 0 0-.9 3.4 2.06 2.06 0 0 0 .7 1.7 1.51 1.51 0 0 0 .8.4 3.33 3.33 0 0 0 1.4.1 2.35 2.35 0 0 0 .8-.2 4.88 4.88 0 0 0 .7-.3c.1-.1.2-.1.4-.2l-.3-1.4c-.6.2-2.8 1.3-2.5-1.2.1-1.4.6-2.4 2.2-2.2l-.1.7zm-24-2.2h-1.2l.4-2h-1.6l-.6 2h-1l-.3 1.6h.8l-1 5.1H30l1-5.1h1.1zm-24 2.2c.5.6.8 0 1-.4a9.19 9.19 0 0 0 .7-2.6c.1-.7-.1-1-.8-1.1a1.27 1.27 0 0 0-.6.1c-.3.2-.2.5-.3 1.1-.2 1.2-.5 2.5 0 2.9zm1.3.7c.4.6 1 0 1.2-.4.6-.9 1.3-2.6.9-3.1s-1.1-.7-1.4 0a13.32 13.32 0 0 0-.5 1.9 2.32 2.32 0 0 0-.2 1.6zM34.83 3h-1.7l-.6 2.8h1.3z" fill="#9ca8c4"/></svg>