<svg xmlns="http://www.w3.org/2000/svg" viewBox="0 0 82.58 77"><path d="M47 35.56h8.5v5.88H47V77h-5.89V60.8h-8.52v-5.87h8.52V22.2h-8.52v-5.87h8.52V0H47zm28.75 2.49V38l6.45-11.49h-6.3l-5 9.26h-2.38v-9.26h-5.87v24h5.87v-9.75h2.42L76 50.49h6.58zM17.82 7.27l-3.49 10.14c-.54 1.54-1.21 3.95-1.21 3.95h-.06s-.67-2.42-1.21-3.95L8.36 7.27H2l-2 24h5.9l.74-10.8a33.87 33.87 0 0 0 0-4h.07s.82 2.51 1.35 4l2.52 6.94h5l2.52-6.94c.53-1.51 1.34-4 1.34-4h.07a33.87 33.87 0 0 0 0 4l.73 10.8h5.87l-1.94-24zM8 53.62c0 8.59-1.94 10.67-4.79 11V70c6.79 0 10.37-4.49 10.37-16.3v-2.93h4.67v19h5.87v-24H8z" fill="#404040"/></svg>